<?xml version="1.0" standalone="no"?><!DOCTYPE svg PUBLIC "-//W3C//DTD SVG 1.1//EN" "http://www.w3.org/Graphics/SVG/1.1/DTD/svg11.dtd"><svg t="1755584060672" class="icon" viewBox="0 0 1024 1024" version="1.1" xmlns="http://www.w3.org/2000/svg" p-id="5698" xmlns:xlink="http://www.w3.org/1999/xlink" width="200" height="200"><path d="M563.2 870.4m-51.2 0a51.2 51.2 0 1 0 102.4 0 51.2 51.2 0 1 0-102.4 0Z" fill="#0032A0" p-id="5699"></path><path d="M492.544 153.6h38.4v102.4h-38.4z" fill="#0032A0" p-id="5700"></path><path d="M409.6 435.2m-51.2 0a51.2 51.2 0 1 0 102.4 0 51.2 51.2 0 1 0-102.4 0Z" fill="#0032A0" p-id="5701"></path><path d="M614.4 435.2m-51.2 0a51.2 51.2 0 1 0 102.4 0 51.2 51.2 0 1 0-102.4 0Z" fill="#0032A0" p-id="5702"></path><path d="M512 652.8c-81.152 0-134.912-52.736-136.96-55.04-5.12-5.12-5.12-13.056 0-18.176s13.056-5.12 18.176 0c0.512 0.512 48.64 47.36 119.04 47.36s118.528-47.104 119.04-47.36c5.12-4.864 13.056-4.864 18.176 0s5.12 13.056 0 18.176c-2.304 2.304-55.808 55.04-136.96 55.04z" fill="#0032A0" p-id="5703"></path><path d="M819.2 409.6v153.6h-51.2v-153.6h51.2m25.6-25.6h-102.4v204.8h102.4v-204.8zM256 409.6v153.6H204.8v-153.6h51.2m25.6-25.6H179.2v204.8h102.4v-204.8z" fill="#0032A0" p-id="5704"></path><path d="M640 256H384c-70.656 0-128 57.344-128 128v384h281.6v-38.4h-243.2V384c0-49.408 40.192-89.6 89.6-89.6h256c49.408 0 89.6 40.192 89.6 89.6v384c0 49.408-40.192 89.6-89.6 89.6h-102.4V896h102.4c70.656 0 128-57.344 128-128V384c0-70.656-57.344-128-128-128z" fill="#0032A0" p-id="5705"></path><path d="M511.744 153.6m-51.2 0a51.2 51.2 0 1 0 102.4 0 51.2 51.2 0 1 0-102.4 0Z" fill="#FF0044" p-id="5706"></path></svg>